<svg width="25" height="25" viewBox="0 0 25 25" fill="none" xmlns="http://www.w3.org/2000/svg">
<path d="M20.3125 14.0625C19.6216 14.0646 18.9508 14.2958 18.4054 14.7199C17.86 15.144 17.4706 15.7371 17.2984 16.4063H14.0625C13.4411 16.4056 12.8453 16.1585 12.4059 15.7191C11.9665 15.2797 11.7194 14.6839 11.7187 14.0625V10.9375C11.7157 10.0895 11.4341 9.26602 10.9172 8.59376H17.2984C17.4886 9.33021 17.9408 9.97203 18.5703 10.3989C19.1998 10.8258 19.9634 11.0084 20.718 10.9126C21.4725 10.8168 22.1662 10.449 22.669 9.87831C23.1718 9.30761 23.4492 8.57311 23.4492 7.81251C23.4492 7.0519 23.1718 6.31741 22.669 5.7467C22.1662 5.17599 21.4725 4.80825 20.718 4.71241C19.9634 4.61658 19.1998 4.79922 18.5703 5.2261C17.9408 5.65298 17.4886 6.29481 17.2984 7.03126H7.70155C7.5114 6.29481 7.05918 5.65298 6.42967 5.2261C5.80015 4.79922 5.03656 4.61658 4.28202 4.71241C3.52748 4.80825 2.83379 5.17599 2.33099 5.7467C1.82818 6.31741 1.55078 7.0519 1.55078 7.81251C1.55078 8.57311 1.82818 9.30761 2.33099 9.87831C2.83379 10.449 3.52748 10.8168 4.28202 10.9126C5.03656 11.0084 5.80015 10.8258 6.42967 10.3989C7.05918 9.97203 7.5114 9.33021 7.70155 8.59376H7.81249C8.4339 8.59438 9.02968 8.84151 9.46908 9.28091C9.90849 9.72031 10.1556 10.3161 10.1562 10.9375V14.0625C10.1575 15.0981 10.5694 16.091 11.3017 16.8233C12.034 17.5556 13.0269 17.9675 14.0625 17.9688H17.2984C17.4454 18.5335 17.7478 19.0458 18.1714 19.4473C18.5949 19.8488 19.1225 20.1235 19.6943 20.2401C20.2661 20.3568 20.8592 20.3108 21.4061 20.1073C21.9531 19.9038 22.432 19.551 22.7885 19.089C23.145 18.6269 23.3648 18.0742 23.4229 17.4935C23.481 16.9128 23.3751 16.3275 23.1173 15.804C22.8594 15.2804 22.4598 14.8397 21.9641 14.5319C21.4683 14.2241 20.8961 14.0615 20.3125 14.0625ZM20.3125 6.25001C20.6215 6.25001 20.9236 6.34165 21.1806 6.51334C21.4375 6.68503 21.6378 6.92906 21.7561 7.21456C21.8743 7.50007 21.9053 7.81424 21.845 8.11734C21.7847 8.42043 21.6359 8.69884 21.4173 8.91736C21.1988 9.13588 20.9204 9.2847 20.6173 9.34498C20.3142 9.40527 20.0001 9.37433 19.7145 9.25607C19.429 9.13781 19.185 8.93754 19.0133 8.68059C18.8416 8.42363 18.75 8.12154 18.75 7.81251C18.7504 7.39823 18.9152 7.00105 19.2081 6.70811C19.501 6.41517 19.8982 6.25042 20.3125 6.25001ZM4.68749 9.37501C4.37845 9.37501 4.07636 9.28337 3.81941 9.11168C3.56246 8.93999 3.36219 8.69596 3.24392 8.41045C3.12566 8.12494 3.09472 7.81077 3.15501 7.50768C3.2153 7.20458 3.36411 6.92617 3.58263 6.70765C3.80115 6.48913 4.07956 6.34032 4.38266 6.28003C4.68575 6.21974 4.99992 6.25068 5.28543 6.36895C5.57094 6.48721 5.81497 6.68748 5.98666 6.94443C6.15835 7.20138 6.24999 7.50347 6.24999 7.81251C6.24957 8.22678 6.08482 8.62397 5.79188 8.9169C5.49895 9.20984 5.10176 9.37459 4.68749 9.37501ZM20.3125 18.75C20.0035 18.75 19.7014 18.6584 19.4444 18.4867C19.1875 18.315 18.9872 18.071 18.8689 17.7855C18.7507 17.4999 18.7197 17.1858 18.78 16.8827C18.8403 16.5796 18.9891 16.3012 19.2076 16.0827C19.4262 15.8641 19.7046 15.7153 20.0077 15.655C20.3108 15.5947 20.6249 15.6257 20.9104 15.7439C21.1959 15.8622 21.44 16.0625 21.6117 16.3194C21.7833 16.5764 21.875 16.8785 21.875 17.1875C21.8744 17.6017 21.7095 17.9988 21.4167 18.2917C21.1238 18.5846 20.7267 18.7494 20.3125 18.75Z" fill="black"/>
</svg>
