<svg width="31" height="35" viewBox="0 0 31 35" fill="none" xmlns="http://www.w3.org/2000/svg">
<path d="M25.8335 2.85693H5.16683C3.746 2.85693 2.59641 4.14252 2.59641 5.7138L2.5835 31.4256L7.75016 25.7118H25.8335C27.2543 25.7118 28.4168 24.4262 28.4168 22.855V5.7138C28.4168 4.14252 27.2543 2.85693 25.8335 2.85693ZM25.8335 22.855H6.67808L5.916 23.6977L5.16683 24.5262V5.7138H25.8335V22.855ZM13.5627 19.9981H23.2502V17.1412H16.146L13.5627 19.9981ZM18.5485 11.6132C18.8068 11.3275 18.8068 10.8847 18.5485 10.599L16.2622 8.07071C16.0039 7.78502 15.6035 7.78502 15.3452 8.07071L7.75016 16.4699V19.9981H10.9406L18.5485 11.6132Z" fill="#E8971D"/>
</svg>
