<svg width="31" height="35" viewBox="0 0 31 35" fill="none" xmlns="http://www.w3.org/2000/svg">
<path d="M25.8335 3.13916H5.16683C3.746 3.13916 2.59641 4.42475 2.59641 5.99602L2.5835 31.7078L7.75016 25.9941H25.8335C27.2543 25.9941 28.4168 24.7085 28.4168 23.1372V5.99602C28.4168 4.42475 27.2543 3.13916 25.8335 3.13916ZM25.8335 23.1372H6.67808L5.916 23.98L5.16683 24.8085V5.99602H25.8335V23.1372ZM13.5627 20.2803H23.2502V17.4235H16.146L13.5627 20.2803ZM18.5485 11.8954C18.8068 11.6098 18.8068 11.1669 18.5485 10.8813L16.2622 8.35293C16.0039 8.06725 15.6035 8.06725 15.3452 8.35293L7.75016 16.7521V20.2803H10.9406L18.5485 11.8954Z" fill="white"/>
</svg>
