<svg width="25" height="25" viewBox="0 0 25 25" fill="none" xmlns="http://www.w3.org/2000/svg">
<path d="M8.85425 16.6667C9.71719 16.6667 10.4167 15.9671 10.4167 15.1042C10.4167 14.2412 9.71719 13.5417 8.85425 13.5417C7.9913 13.5417 7.29175 14.2412 7.29175 15.1042C7.29175 15.9671 7.9913 16.6667 8.85425 16.6667Z" fill="#BBAA0F"/>
<path d="M16.1458 16.6667C17.0087 16.6667 17.7083 15.9671 17.7083 15.1042C17.7083 14.2412 17.0087 13.5417 16.1458 13.5417C15.2828 13.5417 14.5833 14.2412 14.5833 15.1042C14.5833 15.9671 15.2828 16.6667 16.1458 16.6667Z" fill="#BBAA0F"/>
<path d="M12.5001 2.08334C8.33341 2.08334 4.16675 2.60418 4.16675 6.25001V16.1458C4.16675 18.1563 5.80216 19.7917 7.81258 19.7917L6.25008 21.3542V21.875H8.33341L10.4167 19.7917H14.5834L16.6667 21.875H18.7501V21.3542L17.1876 19.7917C19.198 19.7917 20.8334 18.1563 20.8334 16.1458V6.25001C20.8334 2.60418 16.6667 2.08334 12.5001 2.08334ZM12.5001 4.16668C16.1563 4.16668 17.6667 4.66668 18.3022 5.20834H6.698C7.33341 4.66668 8.84383 4.16668 12.5001 4.16668ZM6.25008 7.29168H11.4584V10.4167H6.25008V7.29168ZM18.7501 16.1458C18.7501 17.0104 18.0522 17.7083 17.1876 17.7083H7.81258C6.948 17.7083 6.25008 17.0104 6.25008 16.1458V12.5H18.7501V16.1458ZM18.7501 10.4167H13.5417V7.29168H18.7501V10.4167Z" fill="#BBAA0F"/>
</svg>
