<svg width="25" height="25" viewBox="0 0 25 25" fill="none" xmlns="http://www.w3.org/2000/svg">
<path d="M17.9688 8.74707V8.20312C17.9688 5.75391 14.2744 3.90625 9.375 3.90625C4.47559 3.90625 0.78125 5.75391 0.78125 8.20312V12.1094C0.78125 14.1494 3.34473 15.7705 7.03125 16.2559V16.7969C7.03125 19.2461 10.7256 21.0938 15.625 21.0938C20.5244 21.0938 24.2188 19.2461 24.2188 16.7969V12.8906C24.2188 10.8691 21.7363 9.24609 17.9688 8.74707ZM22.6562 12.8906C22.6562 14.1816 19.6494 15.625 15.625 15.625C15.2607 15.625 14.8994 15.6123 14.543 15.5889C16.6494 14.8213 17.9688 13.5742 17.9688 12.1094V10.3262C20.8857 10.7607 22.6562 11.9404 22.6562 12.8906ZM7.03125 14.6729V12.3496C7.80838 12.4509 8.5913 12.5011 9.375 12.5C10.1587 12.5011 10.9416 12.4509 11.7188 12.3496V14.6729C10.9428 14.7875 10.1594 14.8446 9.375 14.8438C8.59061 14.8446 7.80722 14.7875 7.03125 14.6729ZM16.4062 10.7354V12.1094C16.4062 12.9287 15.1943 13.8086 13.2812 14.3428V12.0605C14.542 11.7549 15.6094 11.2998 16.4062 10.7354ZM9.375 5.46875C13.3994 5.46875 16.4062 6.91211 16.4062 8.20312C16.4062 9.49414 13.3994 10.9375 9.375 10.9375C5.35059 10.9375 2.34375 9.49414 2.34375 8.20312C2.34375 6.91211 5.35059 5.46875 9.375 5.46875ZM2.34375 12.1094V10.7354C3.14062 11.2998 4.20801 11.7549 5.46875 12.0605V14.3428C3.55566 13.8086 2.34375 12.9287 2.34375 12.1094ZM8.59375 16.7969V16.3896C8.85059 16.3994 9.11035 16.4062 9.375 16.4062C9.75391 16.4062 10.124 16.3936 10.4873 16.3721C10.8909 16.5165 11.302 16.6391 11.7188 16.7393V19.0303C9.80566 18.4961 8.59375 17.6162 8.59375 16.7969ZM13.2812 19.3604V17.0312C14.0581 17.1357 14.8411 17.1879 15.625 17.1875C16.4087 17.1886 17.1916 17.1384 17.9688 17.0371V19.3604C16.4146 19.5882 14.8354 19.5882 13.2812 19.3604ZM19.5312 19.0303V16.748C20.792 16.4424 21.8594 15.9873 22.6562 15.4229V16.7969C22.6562 17.6162 21.4443 18.4961 19.5312 19.0303Z" fill="black"/>
</svg>
