<svg width="31" height="35" viewBox="0 0 31 35" fill="none" xmlns="http://www.w3.org/2000/svg">
<path d="M27.6094 15.2106C28.1562 15.0871 28.6477 14.7586 29.0007 14.2806C29.3538 13.8026 29.5467 13.2044 29.5469 12.5872V9.26473C29.5469 8.5544 29.2917 7.87316 28.8375 7.37088C28.3833 6.8686 27.7673 6.58643 27.125 6.58643H3.875C3.23268 6.58643 2.61667 6.8686 2.16248 7.37088C1.70829 7.87316 1.45313 8.5544 1.45312 9.26473V12.5872C1.45329 13.2044 1.64621 13.8026 1.99925 14.2806C2.35229 14.7586 2.84379 15.0871 3.39062 15.2106C3.93811 15.3335 4.43032 15.662 4.78387 16.1404C5.13742 16.6187 5.33055 17.2175 5.33055 17.8353C5.33055 18.4531 5.13742 19.0519 4.78387 19.5303C4.43032 20.0086 3.93811 20.3371 3.39062 20.4601C2.84379 20.5835 2.35229 20.912 1.99925 21.39C1.64621 21.8681 1.45329 22.4663 1.45312 23.0835V26.4059C1.45312 27.1162 1.70829 27.7975 2.16248 28.2998C2.61667 28.802 3.23268 29.0842 3.875 29.0842H27.125C27.7673 29.0842 28.3833 28.802 28.8375 28.2998C29.2917 27.7975 29.5469 27.1162 29.5469 26.4059V23.0835C29.5467 22.4663 29.3538 21.8681 29.0007 21.39C28.6477 20.912 28.1562 20.5835 27.6094 20.4601C27.0619 20.3371 26.5697 20.0086 26.2161 19.5303C25.8626 19.0519 25.6694 18.4531 25.6694 17.8353C25.6694 17.2175 25.8626 16.6187 26.2161 16.1404C26.5697 15.662 27.0619 15.3335 27.6094 15.2106ZM4.35938 23.5053C5.47595 23.1562 6.45894 22.4135 7.15897 21.3901C7.85899 20.3667 8.23779 19.1185 8.23779 17.8353C8.23779 16.5521 7.85899 15.304 7.15897 14.2806C6.45894 13.2572 5.47595 12.5145 4.35938 12.1653V9.8004H10.1719V25.8702H4.35938V23.5053ZM26.6406 23.5053V25.8702H13.0781V9.8004H26.6406V12.1653C25.524 12.5145 24.5411 13.2572 23.841 14.2806C23.141 15.304 22.7622 16.5521 22.7622 17.8353C22.7622 19.1185 23.141 20.3667 23.841 21.3901C24.5411 22.4135 25.524 23.1562 26.6406 23.5053Z" fill="black"/>
</svg>
